<svg id="Flat" height="512" viewBox="0 0 512 512" width="512" xmlns="http://www.w3.org/2000/svg"><path d="m440.013 85.3c-42.65-49.736-111.8-49.736-154.449 0l-29.564 34.479-29.565-34.479c-42.65-49.736-111.8-49.736-154.448 0s-42.649 130.374 0 180.111l31.113 36.289 152.9 178.3 152.9-178.3 31.117-36.287c42.645-49.737 42.645-130.375-.004-180.113z" fill="#eb423f"/><path d="m272 312a8 8 0 0 1 -7.153-4.422l-41.835-83.67-40.354 60.53a8 8 0 0 1 -13.811-.86l-48.557-97.112-41.026 88.887a8 8 0 0 1 -7.264 4.647h-48a8 8 0 0 1 0-16h42.881l45.855-99.353a8 8 0 0 1 7.139-4.647h.125a8 8 0 0 1 7.154 4.422l49.835 99.67 40.354-60.53a8 8 0 0 1 13.811.86l40.033 80.066 57.384-143.459a8 8 0 0 1 7.37-5.029h.059a8 8 0 0 1 7.385 4.923l35.405 84.977 23.553-23.553a8 8 0 0 1 12.812 2.079l29.789 59.574h43.056a8 8 0 0 1 0 16h-48a8 8 0 0 1 -7.155-4.422l-27.036-54.073-24.152 24.152a8 8 0 0 1 -13.042-2.58l-32.464-77.914-56.723 141.808a8 8 0 0 1 -7.1 5.022c-.107.007-.219.007-.328.007z" fill="#dadcde"/></svg>